<svg xmlns="http://www.w3.org/2000/svg" width="877.4" height="458.6" viewBox="0 0 877.4 458.6">
  <defs>
    <style>
      .cls-1 {
        fill: #e73842;
        stroke: #c1272d;
        stroke-width: 4px;
      }

      .cls-1, .cls-12, .cls-13, .cls-14, .cls-15, .cls-16, .cls-18, .cls-19, .cls-3, .cls-4, .cls-6, .cls-7, .cls-8, .cls-9 {
        stroke-miterlimit: 10;
      }

      .cls-2 {
        opacity: 0.15;
      }

      .cls-3 {
        fill: #68472b;
      }

      .cls-3, .cls-8, .cls-9 {
        stroke: #42210b;
      }

      .cls-18, .cls-19, .cls-3, .cls-8, .cls-9 {
        stroke-width: 2px;
      }

      .cls-4 {
        fill: #ffd9c6;
      }

      .cls-12, .cls-13, .cls-15, .cls-16, .cls-4, .cls-6, .cls-7 {
        stroke: #000;
      }

      .cls-5, .cls-7 {
        fill: #dbbaaf;
        opacity: 0.77;
      }

      .cls-6 {
        fill: #f0f;
      }

      .cls-8 {
        fill: #825848;
      }

      .cls-9 {
        fill: #4e2a1a;
      }

      .cls-10 {
        fill: #fff;
      }

      .cls-11 {
        opacity: 0.11;
      }

      .cls-12, .cls-13 {
        fill: #a67c52;
      }

      .cls-13, .cls-15 {
        stroke-width: 0.5px;
      }

      .cls-14 {
        stroke: #8c6239;
        stroke-width: 7px;
        opacity: 0.44;
      }

      .cls-15, .cls-16 {
        fill: #8c6239;
      }

      .cls-17 {
        fill: none;
        stroke: #f1f2f2;
        stroke-dasharray: 2 1;
      }

      .cls-18 {
        fill: #42210b;
      }

      .cls-18, .cls-19 {
        stroke: #fff;
      }
    </style>
  </defs>
  <title>Logov3</title>
  <g id="Calque_2" data-name="Calque 2">
    <g id="Calque_6" data-name="Calque 6">
      <path class="cls-1" d="M537.4,137.8c-3.3-21.4-18-40.6-39.7-43.7s-41.7,10.6-56.1,27.1c-12.9-17.4-32.4-29.7-54.5-28.3-23.6,1.5-45,18.8-48.9,43.2-4.6,28.4,11.9,55.5,27.7,77.2a283.5,283.5,0,0,0,65.8,64.5,5.4,5.4,0,0,0,7.5-.7,6.4,6.4,0,0,0,5.7-1.7C481.9,241.2,546.7,197.6,537.4,137.8Z"/>
      <g class="cls-2">
        <path class="cls-3" d="M503.5,214.8,444,153.6l-.2-.2-8.5-8.8-7.9,8.1-.8.7-59.5,61.2"/>
        <path class="cls-3" d="M350.5,288.5"/>
      </g>
      <path class="cls-4" d="M381,22.9c.1-.2,9.2-6.8,10-7s1.2-1.1,2.4-1.3a2.6,2.6,0,0,0,1.2-.5c7.3-5.4,6.8-10.6,2.8-11.6-1.7-.4-8.2.5-15.7,1.7h0a4.9,4.9,0,0,0,4.6,2.8c2.1,0,4.2-.9,6.3-1.4.4-.1.6.5.2.7-4.5,1.6-9.8,3-11.8-2h0c-3.2.5-7.9,4.3-9.9,5.5-6.1,3.8-5,5-6.7,6.8-15.9,17.4-15.1,22.9-13.9,24.1C354.2,44.7,379.4,25.7,381,22.9Z"/>
      <path class="cls-5" d="M387,26.9c-11.6-10.3,10.5-12,4-14-20.4-6.3-22-1-51,14.6"/>
      <path class="cls-4" d="M396,38.9c4.8-.5,2,3.6,6,4.8,12.3,3.6,17.7-1.5,15.5-6.7-.9-2.3-7.5-8.8-15.4-16.1h-.1c-1.1,2.6-1.2,5,.8,7.5s4.6,4,6.9,5.9c.4.4-.1,1.2-.6.8-5.7-3.8-11.8-8.4-7.9-15a0,0,0,0,0,0-.1c-10.4-9.7-20.1-8-28.1-8-11.6,0-33.2,3.7-39,5-9.6,2.2-38.9-8.5-43.2,4.8-3.7,11.5-28.2,59.7-28,59.6s43.3-30.4,43.4-31.1c.2-2.7,10.1-3.4,22.9-5.5,14.2-2.3,12.3-3,23-4.3,8.6-1.1,23.4-1.5,24.1-1.6"/>
      <path class="cls-6" d="M259,49.9"/>
      <path class="cls-5" d="M405,45.9c-5.3-4.7,13,1-5-15-11.6-10.3-17.5-14-24-16-20.4-6.3-22-1-51,14.6"/>
      <path class="cls-4" d="M398.3,60.2A111.6,111.6,0,0,1,412.3,65c16.6,7.5,6.7,7.3,6.6,1.5,0-2.4-3.6-11-8.1-20.8h-.1c-2,2-3,4.2-2.2,7.3s2.7,5.5,4.2,8c.3.5-.5,1-.8.6-3.8-5.6-7.7-12.3-1.6-16.9h0c-5.9-13-11.7-15.4-17.3-18.8-9.9-6-30.2-15-36.1-16-9.7-1.6-40.4-16.1-49.4-5.5S258.8,48.9,259,48.9,310.7,37.2,311,36.6c1.3-2.4,10.7.7,23.2,3.6s12.5,1.9,22.9,4.7c8.4,2.3,22.2,7.5,22.9,7.7"/>
      <path class="cls-5" d="M418,77.9c-3-8,0-10.8-9-21a158.3,158.3,0,0,0-13.6-13.6l-.4-.4c-5.3-4.7-6.9-2.5-30-13-14.1-6.4-13.9-6.5-20.4-8.5C324.2,15,315.3,8.3,283,31.5c-20,14.4-21.2,14-33,27.4-2.4,2.8-9.4,12.8-7.4,15.3,3.6,4.5,31.8-22.2,65.4-28.3,18.5-3.4,45.6-1.8,82,21"/>
      <path class="cls-4" d="M427.6,75.3l-1.1-1.5a37.2,37.2,0,0,0-4.7-4.8c-2.9-3-7.9-8.1-16.7-17.5-4.3-4.6-6.4-7-7-7.3-5.8-4.1-13.8-4.8-38-12.7-14.8-4.8-16.3-6.7-23-8-21-4-24.8-1.3-60,17-25,13-20.8,7.4-31,22-22.1,31.6-15.8,65.6-38,109.5s-39.4,49.3-37,70c4.1,35.4,47.5,69.5,62,59,5.6-4,6.3-13.5,16-44,5.3-16.8,9.2-19.7,12-22,10-8,8-7,29-9,14.1-1.3,19.4-3.4,25-3,13.6.9,34.5,5.4,49.5,22.4,7.9,9,13.5,18.2,20,14,8.5-5.4,11.3-17.9,11-19-3.9-14.9,5.3-9.3-2-24-2-4-23.6-16.8-40.5-19.5-6.7-1.1-30.2-12.2-36.3-14.7-14.4-5.8-26.7-35.7-31.7-50.7-8.3-25,13-71,40-71,13,0,29.5,3.6,45,8,7,2,21.5,14,28,18,3.9,2.4,11,9.4,22,13,3.6,1.1,7.6,2,11.6.4s7.9-4.5,7.4-8.4c-.8-5.4-10.8-14.8-10.9-14.7s-1.6,3.4-1.4,5.7,7,8.2,7.4,9.2a.5.5,0,0,1-.2.7c-.2.1-.5-.1-.6-.2-6.6-4.5-7.7-8.6-7.7-8.6A11.3,11.3,0,0,1,427.6,75.3Z"/>
      <path class="cls-7" d="M409,55.9"/>
      <path class="cls-4" d="M528.8,41.3c1.2-1.2,2-6.7-13.9-24.1-1.7-1.8-.6-3-6.7-6.8-2-1.3-6.7-5-9.9-5.5h0c-2,5-7.3,3.6-11.8,2-.4-.1-.2-.8.2-.7,2,.5,4.2,1.4,6.3,1.4a4.9,4.9,0,0,0,4.6-2.8h0c-7.5-1.3-14-2.2-15.7-1.7-3.9,1-4.5,6.2,2.8,11.6a2.6,2.6,0,0,0,1.2.5c1.2.2,1.5,1.1,2.4,1.3s9.9,6.8,10,7C499.8,26.2,525,45.2,528.8,41.3Z"/>
      <path class="cls-5" d="M492.2,27.4c11.6-10.3-10.5-12-4-14,20.4-6.3,22-1,51,14.6"/>
      <path class="cls-4" d="M503,39.3c.7,0,15.5.5,24.1,1.6,10.7,1.4,8.8,2.1,23,4.3,12.7,2,22.6,2.8,22.9,5.5.1.7,43.3,31.1,43.4,31.1s-24.3-48.1-28-59.6c-4.3-13.3-33.6-2.6-43.2-4.8-5.8-1.3-27.4-5-39-5-8,0-17.7-1.7-28.1,8a0,0,0,0,0,0,.1c3.9,6.6-2.2,11.3-7.9,15-.5.3-1-.5-.6-.8,2.3-1.9,5.1-3.5,6.9-5.9s1.8-4.9.8-7.5h-.1c-7.9,7.4-14.5,13.9-15.4,16.1-2.2,5.3,3.2,10.4,15.5,6.7,4-1.2,1.2-5.3,6-4.8"/>
      <path class="cls-6" d="M620.2,50.4"/>
      <path class="cls-5" d="M474.2,46.4c5.3-4.7-13,1,5-15,11.6-10.3,17.5-14,24-16,20.4-6.3,22-1,51,14.6"/>
      <path class="cls-4" d="M499.1,53.2c.7-.2,14.5-5.5,22.9-7.7,10.4-2.8,8.9-1.4,22.9-4.7s22-6.1,23.2-3.6c.3.6,51.9,12.3,51.9,12.3S579.4,14.1,571.6,4.9,532,8.7,522.3,10.4c-5.9,1-26.2,10-36.1,16-5.5,3.4-11.3,5.8-17.3,18.8h0c6.1,4.6,2.2,11.3-1.6,16.9-.3.5-1.1-.1-.8-.6,1.4-2.6,3.4-5.2,4.2-8s-.2-5.3-2.2-7.3h-.1c-4.5,9.8-8.1,18.3-8.1,20.8,0,5.7-10,6,6.6-1.5a111.6,111.6,0,0,1,13.9-4.8"/>
      <path class="cls-5" d="M461.2,78.4c3-8,0-10.8,9-21a158.3,158.3,0,0,1,13.6-13.6l.4-.4c5.3-4.7,6.9-2.5,30-13,14.1-6.4,13.9-6.5,20.4-8.5C555,15.5,563.9,8.8,596.1,32c20,14.4,21.2,14,33,27.4,2.4,2.8,9.4,12.8,7.4,15.3-3.6,4.5-31.8-22.2-65.4-28.3-18.5-3.4-45.6-1.8-82,21"/>
      <path class="cls-4" d="M451.6,75.8l1.1-1.5a37.2,37.2,0,0,1,4.7-4.8c2.9-3,7.9-8.1,16.7-17.5,4.3-4.6,6.4-7,7-7.3,5.8-4.1,13.8-4.8,38-12.7,14.8-4.8,16.3-6.7,23-8,21-4,24.8-1.3,60,17,25,13,20.8,7.4,31,22,22.1,31.6,15.8,65.6,38,109.5s39.4,49.3,37,70c-4.1,35.4-47.5,69.5-62,59-5.6-4-6.3-13.5-16-44-5.3-16.8-9.2-19.7-12-22-10-8-8-7-29-9-14.1-1.3-19.4-3.4-25-3-13.6.9-34.5,5.4-49.5,22.4-7.9,9-13.5,18.2-20,14-8.5-5.4-11.3-17.9-11-19,3.9-14.9-5.3-9.3,2-24,2-4,23.6-16.8,40.5-19.5,6.7-1.1,30.2-12.2,36.3-14.7,14.4-5.8,26.7-35.7,31.7-50.7,8.3-25-13-71-40-71-13,0-29.5,3.6-45,8-7,2-21.5,14-28,18-3.9,2.4-11,9.4-22,13-3.6,1.1-7.6,2-11.6.4s-7.9-4.5-7.4-8.4c.8-5.4,10.8-14.8,10.9-14.7s1.6,3.4,1.4,5.7-7,8.2-7.4,9.2a.5.5,0,0,0,.2.7c.2.1.5-.1.6-.2,6.6-4.5,7.8-8.6,7.8-8.6A11.3,11.3,0,0,0,451.6,75.8Z"/>
      <path class="cls-7" d="M470.2,56.4"/>
      <g id="Calque_10" data-name="Calque 10">
        <g id="_Groupe_" data-name="&lt;Groupe&gt;">
          <path id="_Tracé_" data-name="&lt;Tracé&gt;" class="cls-8" d="M120.8,457S42.9,442.6,1.6,372.2l71.2-15.8,20.7-63.3s40.1,68.8,129.5,79.1Z"/>
          <path class="cls-8" d="M756.6,457s77.9-14.4,119.2-84.8l-71.2-15.8L784,293.1s-40.1,68.8-129.5,79.1Z"/>
          <polygon id="_Tracé_2" data-name="&lt;Tracé&gt;" class="cls-9" points="60.9 316.8 120.8 457 222.9 372.2 164.2 224.1 60.9 316.8"/>
          <polygon class="cls-9" points="816.4 316.8 756.6 457 654.4 372.2 713.2 224.1 816.4 316.8"/>
          <path class="cls-8" d="M713.2,224.1l103.2,92.6c-208.3,186.9-547.2,187-755.5,0l103.2-92.6C315.5,360,561.8,360,713.2,224.1Z"/>
        </g>
        <g>
          <path class="cls-10" d="M251,386.9c-9.6,3.3-17.7,3.4-25.3.8-11.4-3.9-15.6-16-11-26.7s13.3-20.8,24.7-24.7a20.4,20.4,0,0,1,13.2-.2c6.9,2.4,10,8.7,7.7,15.7a23.8,23.8,0,0,1-11.9,13.8,11.8,11.8,0,0,1-8.8.6c-4.4-1.5-6.4-5.6-4.9-9.7.9-2.6,3.5-5.6,5.3-6.4s2.1-.3,4.2.4,1.7.5.1,2a18,18,0,0,0-4.1,5.5c-.9,2.6.9,6.5,7.4,1a21.1,21.1,0,0,0,6.1-8.6c1.5-4.5.2-7.8-3.5-9.1a13.3,13.3,0,0,0-9.7,1c-7.9,3.8-15.6,12.6-18.6,20.7s-1,17.3,7,20.2,14.2,1.6,24.3-3.1Z"/>
          <path class="cls-10" d="M294,399c-4.6,1.8-11,1.4-15.3-5.7-6.4,6-12.6,7.8-19.6,5.7s-10.1-8-7.8-15.2a23.1,23.1,0,0,1,16-15c3.4-.8,6.3-.7,10.7.6h.3l-1.7,4.5c-3.8-.5-6.1-.3-8.8.8s-7,5.7-8.5,10.6-.2,7.8,3.2,8.8,10.6-2.3,13.4-7.8V386c-.1-2.3.1-5.2,3-10.2a8.2,8.2,0,0,1,2.1-2.7l5.8,1.6c0,.8.3,6-4.6,13.6,2.1,3.7,3.9,5.3,6,5.8s4.4,0,7.5-2.1Z"/>
          <path class="cls-10" d="M312.3,377.9l-.7,1.1c-2.4,3.5-3.7,5.5-5.3,8.3v.2c9.5-5.5,14-7.4,17.3-6.8s4.9,4.5,4,9.1l-.4,1.5c3.7-1.5,11.1-6.3,16-5.5,3.2.5,5.3,4.2,4.7,8.1-.3,1.7-1.3,4.2-3.4,7.8s-3.3,6.1-3.6,7.7.3,2.4,1.1,2.5,8.6-2.8,15.6-7.9l-1,7c-7.7,5.2-13.6,7.2-18.2,6.5s-5.8-5.2-5.2-8.4c1-5.4,6.9-13.5,7.3-15.8s-.2-2.2-2.3-1.6-7.1,3.4-12.1,6.1l-1.7.9L318,413.2l-7.7-1.6c3.3-6.5,4.9-9.7,8-16.2,1.5-3.6,4-8.9-.8-7.8-1.7.5-7.3,3.3-13,6.3l-1.9,1-1.4,5.4-1.9,8.9-7.2-1.7.7-4.6,1.5-7.6c1.1-4.3,5-11.4,10.3-19.2Z"/>
          <path class="cls-10" d="M385.7,382.2c-2.5,7.2-3.8,10.8-6.5,17.9l.2.2,1-1.2c6.3-6.7,10.4-9.2,15-8.8s7.5,4.5,7.1,10.1a27.3,27.3,0,0,1-9.4,18.3,11.1,11.1,0,0,0,6.7-1.5,53.1,53.1,0,0,0,8.9-6.1l2.5-2-.4,7.1c-2.7,2.1-9.8,8-17.6,7.4a15.3,15.3,0,0,1-5.3-1.6,12.2,12.2,0,0,1-6.2.9c-3.3-.3-4.6-1.2-4.4-3a8.9,8.9,0,0,1,1.8-4.3c1.4-1.7,3.8-.8,8,1.1a12.8,12.8,0,0,0,4.1-4.2,26.7,26.7,0,0,0,4.1-11.7c.8-9.7-6.8-5.4-14.6,3.8-5.5,6.5-7,8.9-11.3,19.6a118,118,0,0,1-7.1,15.1c-.8,1.5-1.9,1.9-3.9,1.7s-4.8-1.8-4.6-3.8,2.2-5.4,5.5-10.5a179.5,179.5,0,0,0,12-22.2l4.7-11.1-.2-.2c-6.9,8.9-11.7,13.3-19.2,18.1l1-7a99.1,99.1,0,0,0,22.3-22.8Z"/>
          <path class="cls-10" d="M415.3,390.8c4.8-2.7,9-7.8,9.1-10.9.1-1.5-2.4-.4-2.3-2.5a20.3,20.3,0,0,1,1.3-5.2c1.3-3.5,1.6-3.9,3.7-3.8a21.3,21.3,0,0,1,3.9.5c.5.2.8,1.2.8,2.7a29.8,29.8,0,0,1-6.1,16,25.1,25.1,0,0,1-8.4,6.3Z"/>
          <path class="cls-10" d="M457.9,418c-5.8,5.9-9.4,8.1-13,8.1-5.6,0-10.3-5.6-10.2-12.1a23.9,23.9,0,0,1,7.2-16.4c3.4-3.2,7.7-5.3,11.3-5.3s6.4,1.6,9,5.3l1.4-5.4,7.3-.3c-1.6,7.2-2.4,10.7-4,17.9-1.1,4.7-1.9,9.5-.2,9.4s6.8-3.9,12.2-9.9l.4,7.1c-6.7,6.5-12,9.5-16.4,9.6s-4.9-2.1-5-6.1Zm3.2-15.5-1.1-1.2c-2.7-2.9-4.1-3.8-6-3.8-5.7.1-11.2,7.3-11.2,14.8,0,4.5,2,8,4.6,8s7.5-3.7,11.4-8.9l.5-.5Z"/>
          <path class="cls-10" d="M490.5,390.9c-1.4,4.5-2.1,7-3,10.8l.2.2c8.7-8.7,12.5-11.7,16.4-12.1s5.8,2.7,6.2,6.9-3.1,14.4-2.7,18.2c.2,1.5.8,2.3,1.7,2.2s8.7-5.6,13.2-11.7l.9,7-1.7,1.8c-6.6,6.5-10.1,8.7-14.4,9.1s-6.7-2.5-7.2-7.2,3.3-13.9,3-16.9-.6-3.5-3.4-1.7-6.4,5.4-11.3,10.6l-1.9,1.9a41.9,41.9,0,0,0,0,6.1l.9,8.5-7.5.4-.5-4.8-.7-7.2c-.3-5,1.3-12.1,4.3-21.7Z"/>
          <path class="cls-10" d="M532.8,386.4l-.6,2.6c-2.2,10.9-2.9,16.3-2.2,21,.3,2.1.6,6,5.5,2a67.2,67.2,0,0,0,7-7.2l2.2-2.6,1.1,7-1.5,1.5c-6.4,6.5-11,9.6-15.3,10.1a4.5,4.5,0,0,1-2.9-.4c-1.5-.9-2.9-5.1-3.5-10.1s.3-14.3,2.9-23Zm2.9-16.4a12.3,12.3,0,0,1-1.4,6.5c-.5.8-1.4,1.2-3.3,1.4s-3.5-.1-3.7-1.6.7-6.3,2-7.4a2.9,2.9,0,0,1,1.7-.7C533.8,367.8,535.4,368.4,535.7,370Z"/>
          <path class="cls-10" d="M554.5,382.7l-.2,1.3c-.8,4.1-1.3,6.5-1.6,9.7h.2c6.6-8.8,10-12.3,13.4-12.9s6.3,2.3,7.2,6.8l.2,1.5c2.8-2.8,7.9-10.1,12.7-11.2,3.2-.8,6.6,1.8,7.5,5.7.4,1.7.4,4.3-.1,8.5s-.7,6.9-.3,8.5,1.2,2.1,2,1.9,6.9-5.9,11.4-13.4l1.8,6.9c-5.1,7.8-9.8,11.9-14.4,13s-7.4-2.5-8.1-5.7c-1.2-5.3,1.2-15.2.6-17.4s-1.1-2-2.7-.6-5.2,5.8-8.8,10.3l-1.2,1.5c-.2,6.4-.3,9.6-.6,16l-7.7,1.5c.5-7.2.7-10.8,1.1-18.1,0-3.9.2-9.8-3.7-6.9-1.4,1.1-5.5,5.8-9.5,10.9l-1.3,1.6.8,5.5,1.7,8.9-7.3,1.2-1.1-4.5-1.6-7.5c-.7-4.4.2-12.4,2.1-21.7Z"/>
          <path class="cls-10" d="M630.9,390.6c-4.1,7.3-6.9,10.4-10.5,11.3-5.5,1.5-11.5-2.5-13.2-8.8a23.8,23.8,0,0,1,2.6-17.8c2.4-4,6.1-7.2,9.5-8.2s6.6-.2,10.2,2.6c0-2.2-.1-3.4-.1-5.6l7.1-2.3c.4,7.3.6,11,.9,18.3.2,4.8.7,9.7,2.4,9.1s5.5-5.6,9.2-12.9l2.3,6.7c-4.8,8.1-9.1,12.5-13.4,13.8s-5.4-.7-6.5-4.5Zm-1.1-15.8-1.4-.8c-3.5-2.1-5-2.6-6.9-2-5.5,1.6-8.9,10.1-6.9,17.4,1.2,4.4,4.1,7.1,6.6,6.4s6.2-5.6,8.6-11.6l.3-.6C630.1,380,630,378.3,629.8,374.8Z"/>
          <path class="cls-10" d="M647.3,352.6c.3-9.2,1-13.2,2.9-17.7,1.3-2.7,2.9-4.3,4.8-5s6.7.9,8.2,4.8,1.7,9.2.5,15.1a103.2,103.2,0,0,1-5.7,18.5l-2,4.8a33.1,33.1,0,0,0,1.2,4.9c1.3,3.9,3.3,5.2,6.2,4.2,4.5-1.6,10.7-8.6,14.3-16.6l2.6,6.6c-6.6,9.8-11.5,14.1-17.7,16.3-2.3.8-4.6.9-6,.3s-5.4-4.6-6.7-8.3-3.3-14.6-2.8-26.1Zm7.8,10.7c2.6-7.7,5.9-19.5,3.7-25.4-.6-1.7-1.7-2.5-2.6-2.1s-1.6,1.8-1.9,4.1a113.7,113.7,0,0,0,.3,25h.2Z"/>
        </g>
      </g>
      <g class="cls-11">
        <path d="M395.7,326.8l-28.9,32h38.9l9.5-11.5c3.5-4.5,8.4-8.1,19.7-8.1h2.4c10.4.5,14.4,3.8,17.9,7.5l9.9,12.1h42.8L476,326"/>
      </g>
      <g id="Calque_8" data-name="Calque 8">
        <path class="cls-12" d="M359.8,284.2l6.3,74.6h38.8V319.4c0-17.1,13.5-31,30.1-31h0c16.6,0,30.1,13.9,30.1,31v39.4h42V281.2"/>
        <polyline class="cls-13" points="359.8 284.2 434.3 204.9 507.2 281.3"/>
      </g>
    </g>
    <g id="Calque_9" data-name="Calque 9">
      <line class="cls-14" x1="392.1" y1="252.4" x2="488.2" y2="252.4"/>
      <line class="cls-14" x1="395" y1="227.1" x2="485.6" y2="227.1"/>
      <line class="cls-14" x1="361.2" y1="278.9" x2="424.4" y2="278.9"/>
      <line class="cls-14" x1="466.3" y1="306.9" x2="507.1" y2="306.9"/>
      <line class="cls-14" x1="465.7" y1="337.3" x2="497.9" y2="337.3"/>
      <line class="cls-14" x1="361.7" y1="306.9" x2="402.5" y2="306.9"/>
      <line class="cls-14" x1="365.6" y1="337.3" x2="397.8" y2="337.3"/>
      <line class="cls-14" x1="465.5" y1="277.3" x2="506.3" y2="277.3"/>
    </g>
    <g id="Calque_7" data-name="Calque 7">
      <path class="cls-15" d="M404.8,359"/>
      <path class="cls-16" d="M434.3,204.9l72.8,76.3c.6.5,18.7,0,19.5-.1,10.5-1,15.8-13.9,8.2-21.9l-.2-.2-86.9-89.4-.2-.2-.9-1a16.1,16.1,0,0,0-23.1,0h0l-1.2,1.1L335.3,259a18,18,0,0,0-5,11.8,12.9,12.9,0,0,0,11.6,13.3c.8.1,17.3.7,17.9.1l74.5-79.3Z"/>
      <path class="cls-17" d="M104.4,321.1"/>
      <g>
        <ellipse class="cls-18" cx="136.9" cy="306.2" rx="10.6" ry="12.4" transform="translate(-192.7 244) rotate(-55.2)"/>
        <ellipse class="cls-18" cx="154.6" cy="284.5" rx="10.6" ry="12.4" transform="matrix(0.64, -0.77, 0.77, 0.64, -163.02, 221.48)"/>
        <ellipse class="cls-18" cx="184.6" cy="281.3" rx="10.6" ry="12.4" transform="translate(-107.8 114.9) rotate(-27.1)"/>
        <ellipse class="cls-18" cx="141.7" cy="340.3" rx="10.6" ry="12.4" transform="translate(-226.5 358.5) rotate(-70.2)"/>
        <path class="cls-18" d="M126.2,331.2a2.9,2.9,0,0,1-1.7,4.8c-2.3.5-10.9-6.3-10.3-7.6S124.9,329.4,126.2,331.2Z"/>
        <path class="cls-18" d="M177.8,265a2.9,2.9,0,0,1-4.2,3c-2.2-.9-5.4-11.4-4.1-12.1S177.7,262.8,177.8,265Z"/>
        <path class="cls-18" d="M123.8,294.7a2.9,2.9,0,0,1-2.5,4.5c-2.4.1-9.7-8-8.8-9.2S122.8,292.7,123.8,294.7Z"/>
        <path class="cls-18" d="M143.2,270.6a2.9,2.9,0,0,1-3.2,4c-2.4-.3-8.3-9.5-7.2-10.5S142.6,268.5,143.2,270.6Z"/>
        <path class="cls-18" d="M191.7,329.8c-5.5,6.2,2.8,13.8-.7,23-2.8,7.5-12.1,14.3-20.3,12.2-6.2-1.6-11.4-8.3-10.7-13.6s6.1-5.5,7.1-11.1-2.6-6.6-4.1-12.8.6-18.1,7.3-22.8c8.6-6,19.7-2.5,22.1-1.7,5.6,1.7,7.3,5.8,10.9,5.1,6-1.1,6-8.8,10.8-9.4s14.8,5.4,15.1,14.1c.2,6.3-5.9,14.6-14.3,16.5S197.7,323,191.7,329.8Z"/>
      </g>
      <g>
        <ellipse class="cls-19" cx="748.4" cy="295.3" rx="13.4" ry="12.1" transform="translate(-49.3 400.2) rotate(-29)"/>
        <ellipse class="cls-19" cx="751.7" cy="332.8" rx="13.4" ry="12.1" transform="translate(-42.4 120.3) rotate(-8.9)"/>
        <ellipse class="cls-19" cx="717.9" cy="277.4" rx="13.4" ry="12.1" transform="translate(57.9 673.3) rotate(-52.1)"/>
        <ellipse class="cls-19" cx="685.2" cy="278.8" rx="13.4" ry="12.1" transform="translate(160.6 800.3) rotate(-67)"/>
        <path class="cls-19" d="M668.8,325.3c4.5,6.8,13.2,2.3,21.8,10.4,6.9,6.6,5,14.8,11.8,19.2s14.6,1.5,19.9-2.3c14.3-10.1,14.7-39.4,1.2-51.4a23.9,23.9,0,0,0-6.5-4c-14-6.4-36.4-3.7-46.8,8.8C665.7,311.4,665.1,319.7,668.8,325.3Z"/>
      </g>
    </g>
  </g>
</svg>
